<?xml version="1.0" standalone="no"?><svg xmlns="http://www.w3.org/2000/svg" viewBox="0 0 1440 320"><path fill="#daa520" fill-opacity="1" d="M0,256L30,234.7C60,213,120,171,180,138.7C240,107,300,85,360,101.3C420,117,480,171,540,186.7C600,203,660,181,720,192C780,203,840,245,900,240C960,235,1020,181,1080,160C1140,139,1200,149,1260,133.3C1320,117,1380,75,1410,53.3L1440,32L1440,320L1410,320C1380,320,1320,320,1260,320C1200,320,1140,320,1080,320C1020,320,960,320,900,320C840,320,780,320,720,320C660,320,600,320,540,320C480,320,420,320,360,320C300,320,240,320,180,320C120,320,60,320,30,320L0,320Z"></path></svg>